<svg width="36" height="36" viewBox="0 0 36 36" fill="none" xmlns="http://www.w3.org/2000/svg">
<path d="M21.75 28.5H18.75C14.5065 28.5 12.3855 28.5 11.0685 27.1815C9.7485 25.8645 9.7485 23.742 9.7485 19.5V12C9.7485 7.758 9.7485 5.6355 11.0685 4.3185C12.384 3 14.505 3 18.7485 3H20.7645C21.9915 3 22.6035 3 23.1555 3.228C23.706 3.456 24.1395 3.891 25.0065 4.758L28.992 8.742C29.859 9.609 30.2925 10.044 30.522 10.5945C30.75 11.1465 30.75 11.7585 30.75 12.9855V19.5C30.75 23.742 30.75 25.8645 29.4315 27.1815C28.1145 28.5 25.992 28.5 21.75 28.5Z" stroke="#52A5FF" stroke-linecap="round" stroke-linejoin="round"/>
<path d="M22.5 3.75V5.25C22.5 8.079 22.5 9.492 23.379 10.371C24.2565 11.25 25.671 11.25 28.5 11.25H30M9.75 7.5C8.55653 7.5 7.41193 7.97411 6.56802 8.81802C5.72411 9.66193 5.25 10.8065 5.25 12V24C5.25 28.242 5.25 30.3645 6.567 31.6815C7.8855 33 10.0065 33 14.25 33H21.75C22.9435 33 24.0881 32.5259 24.932 31.682C25.7759 30.8381 26.25 29.6935 26.25 28.5M15 16.5H21M15 22.5H25.5" stroke="#52A5FF" stroke-linecap="round" stroke-linejoin="round"/>
</svg>
