<svg width="36" height="36" viewBox="0 0 36 36" fill="none" xmlns="http://www.w3.org/2000/svg">
<path d="M27 15.75V28.6875C27 29.0568 26.9273 29.4226 26.7859 29.7638C26.6446 30.105 26.4374 30.4151 26.1762 30.6762C25.9151 30.9374 25.605 31.1446 25.2638 31.2859C24.9226 31.4273 24.5568 31.5 24.1875 31.5H7.3125C6.56658 31.5 5.85121 31.2037 5.32376 30.6762C4.79632 30.1488 4.5 29.4334 4.5 28.6875V11.8125C4.5 11.0666 4.79632 10.3512 5.32376 9.82376C5.85121 9.29632 6.56658 9 7.3125 9H19.0884" stroke="#52A5FF" stroke-linecap="round" stroke-linejoin="round"/>
<path d="M32.3395 3.74416C32.2368 3.63127 32.1122 3.54038 31.9734 3.47698C31.8345 3.41359 31.6842 3.37901 31.5316 3.37533C31.379 3.37165 31.2273 3.39895 31.0855 3.45557C30.9437 3.5122 30.8149 3.59698 30.7069 3.70479L29.8371 4.57033C29.7317 4.67581 29.6725 4.81883 29.6725 4.96795C29.6725 5.11707 29.7317 5.26009 29.8371 5.36557L30.6345 6.1615C30.6867 6.21402 30.7488 6.25568 30.8173 6.28412C30.8857 6.31255 30.959 6.32718 31.0331 6.32718C31.1072 6.32718 31.1806 6.31255 31.249 6.28412C31.3174 6.25568 31.3795 6.21402 31.4318 6.1615L32.2798 5.31775C32.7087 4.88955 32.7488 4.19205 32.3395 3.74416ZM28.0786 6.32815L15.3858 18.9985C15.3088 19.0751 15.2529 19.1703 15.2234 19.2748L14.6363 21.0235C14.6222 21.0709 14.6212 21.1213 14.6334 21.1692C14.6455 21.2172 14.6704 21.261 14.7054 21.296C14.7404 21.331 14.7842 21.3559 14.8322 21.3681C14.8802 21.3802 14.9305 21.3792 14.978 21.3652L16.7252 20.7781C16.8298 20.7485 16.9249 20.6926 17.0016 20.6156L29.6719 7.92143C29.7891 7.80295 29.8548 7.64301 29.8548 7.47635C29.8548 7.30968 29.7891 7.14975 29.6719 7.03127L28.9723 6.32815C28.8536 6.20986 28.693 6.14343 28.5254 6.14343C28.3579 6.14343 28.1972 6.20986 28.0786 6.32815Z" fill="#52A5FF"/>
</svg>
