<svg width="46" height="46" viewBox="0 0 46 46" fill="none" xmlns="http://www.w3.org/2000/svg">
<path d="M40.1646 22.2537C40.0703 22.2535 39.9768 22.2719 39.8895 22.3079C39.8023 22.3439 39.723 22.3968 39.6562 22.4635C39.5894 22.5301 39.5364 22.6093 39.5002 22.6965C39.4641 22.7837 39.4455 22.8771 39.4455 22.9715V26.5674H35.1304C34.9403 26.5674 34.7579 26.6428 34.6233 26.7771C34.4887 26.9115 34.413 27.0937 34.4126 27.2838C34.4124 27.3782 34.4309 27.4717 34.4668 27.5589C34.5028 27.6462 34.5557 27.7255 34.6224 27.7923C34.689 27.8591 34.7682 27.9121 34.8554 27.9482C34.9426 27.9844 35.036 28.003 35.1304 28.003H40.1646C40.2591 28.0032 40.3527 27.9847 40.4401 27.9486C40.5274 27.9126 40.6067 27.8596 40.6736 27.7928C40.7404 27.726 40.7933 27.6466 40.8294 27.5593C40.8655 27.4719 40.884 27.3783 40.8838 27.2838V22.9688C40.8838 22.8744 40.8652 22.781 40.829 22.6938C40.7929 22.6066 40.7399 22.5274 40.6731 22.4607C40.6063 22.3941 40.527 22.3412 40.4397 22.3052C40.3525 22.2692 40.259 22.2508 40.1646 22.251V22.2537Z" fill="#0E1A26"/>
<path d="M3.59526 12.9316C3.40488 12.9316 3.2223 13.0072 3.08768 13.1418C2.95307 13.2765 2.87744 13.459 2.87744 13.6494V32.3751C2.87744 32.5654 2.95307 32.748 3.08768 32.8826C3.2223 33.0173 3.40488 33.0929 3.59526 33.0929H7.9103V39.5519C7.91007 39.6939 7.95199 39.8329 8.03076 39.9511C8.10954 40.0693 8.22162 40.1615 8.35282 40.216C8.48402 40.2705 8.62843 40.2848 8.76778 40.2572C8.90713 40.2295 9.03514 40.1612 9.13561 40.0607L16.1102 33.0861H33.0719C33.2623 33.0861 33.4448 33.0105 33.5795 32.8759C33.7141 32.7412 33.7897 32.5587 33.7897 32.3683V13.6426C33.7897 13.4522 33.7141 13.2697 33.5795 13.135C33.4448 13.0004 33.2623 12.9248 33.0719 12.9248L3.59526 12.9316Z" fill="#D39500"/>
<path d="M18.7261 12.9312V33.0138H33.1096C33.2999 33.0138 33.4825 32.9382 33.6171 32.8036C33.7517 32.669 33.8274 32.4864 33.8274 32.296V13.5704C33.8274 13.38 33.7517 13.1974 33.6171 13.0628C33.4825 12.9282 33.2999 12.8525 33.1096 12.8525L18.7261 12.9312Z" fill="#D39500"/>
<path d="M33.1092 5.74023C29.2827 5.74023 27.1659 7.76206 26.1753 9.72961C25.1915 11.6972 25.2024 13.6376 25.2024 13.6376V16.5143C25.2022 16.6088 25.2207 16.7024 25.2568 16.7897C25.2929 16.877 25.3458 16.9564 25.4126 17.0232C25.4795 17.09 25.5588 17.143 25.6461 17.1791C25.7335 17.2151 25.8271 17.2336 25.9216 17.2334C26.016 17.2334 26.1094 17.2148 26.1966 17.1787C26.2838 17.1425 26.363 17.0895 26.4296 17.0227C26.4963 16.9559 26.5491 16.8766 26.5851 16.7894C26.6211 16.7021 26.6396 16.6087 26.6394 16.5143V13.6376C26.6394 13.6376 26.6489 11.9957 27.4617 10.3674C28.2745 8.73905 29.7549 7.17858 33.1065 7.17858C36.4582 7.17858 37.9372 8.75262 38.7514 10.3674C39.5642 11.9957 39.5737 13.6376 39.5737 13.6376V16.5143C39.5735 16.6088 39.592 16.7024 39.628 16.7897C39.6641 16.877 39.7171 16.9564 39.7839 17.0232C39.8507 17.09 39.9301 17.143 40.0174 17.1791C40.1047 17.2151 40.1983 17.2336 40.2928 17.2334C40.3873 17.2336 40.4809 17.2151 40.5683 17.1791C40.6556 17.143 40.735 17.09 40.8018 17.0232C40.8686 16.9564 40.9216 16.877 40.9576 16.7897C40.9937 16.7024 41.0122 16.6088 41.012 16.5143V13.6376C41.012 13.6376 41.0202 11.6972 40.0364 9.72961C39.0526 7.76206 36.9426 5.74023 33.1025 5.74023H33.1092Z" fill="#A1A1A1"/>
<path d="M33.1091 5.74023V7.17858C36.4607 7.17881 37.9398 8.75262 38.7539 10.3674C39.5667 11.9957 39.5749 13.6376 39.5749 13.6376V16.5143C39.5749 16.6087 39.5935 16.7021 39.6296 16.7893C39.6658 16.8765 39.7188 16.9557 39.7856 17.0223C39.8524 17.089 39.9317 17.1418 40.0189 17.1778C40.1062 17.2138 40.1997 17.2323 40.294 17.2321C40.4844 17.2321 40.667 17.1565 40.8016 17.0218C40.9362 16.8872 41.0119 16.7047 41.0119 16.5143V13.6376C41.0119 13.6376 41.0197 11.6972 40.0362 9.72961C39.0524 7.76206 36.9424 5.74023 33.1023 5.74023H33.1091Z" fill="#0E1A26"/>
<path d="M23.7465 15.7402C23.5564 15.7399 23.3739 15.815 23.239 15.949C23.1042 16.0831 23.0281 16.2652 23.0273 16.4553V22.9279C23.0272 23.0224 23.0456 23.116 23.0817 23.2033C23.1178 23.2907 23.1708 23.37 23.2376 23.4368C23.3044 23.5037 23.3838 23.5566 23.4711 23.5927C23.5584 23.6288 23.652 23.6473 23.7465 23.6471H28.0616C28.1559 23.6471 28.2494 23.6285 28.3366 23.5923C28.4238 23.5561 28.5029 23.5032 28.5696 23.4364C28.6363 23.3696 28.6891 23.2903 28.7251 23.203C28.7611 23.1158 28.7796 23.0223 28.7794 22.9279V16.4553C28.7787 16.2654 28.7027 16.0835 28.5682 15.9495C28.4336 15.8155 28.2515 15.7402 28.0616 15.7402H23.7465ZM38.13 15.7402C37.9399 15.7399 37.7573 15.815 37.6225 15.949C37.4877 16.0831 37.4115 16.2652 37.4108 16.4553V22.9279C37.4106 23.0224 37.4291 23.116 37.4652 23.2033C37.5013 23.2907 37.5543 23.37 37.6211 23.4368C37.6879 23.5037 37.7672 23.5566 37.8546 23.5927C37.9419 23.6288 38.0355 23.6473 38.13 23.6471H42.4315C42.526 23.6473 42.6196 23.6288 42.7069 23.5927C42.7942 23.5566 42.8736 23.5037 42.9404 23.4368C43.0072 23.37 43.0602 23.2907 43.0963 23.2033C43.1323 23.116 43.1508 23.0224 43.1506 22.9279V16.4553C43.1499 16.2652 43.0738 16.0831 42.939 15.949C42.8041 15.815 42.6216 15.7399 42.4315 15.7402H38.13ZM30.9383 25.1031C30.8439 25.1031 30.7504 25.1217 30.6633 25.1578C30.5761 25.194 30.4969 25.247 30.4302 25.3138C30.3635 25.3806 30.3107 25.4599 30.2747 25.5471C30.2387 25.6344 30.2203 25.7279 30.2204 25.8222V28.6989C30.2204 28.8893 30.2961 29.0719 30.4307 29.2065C30.5653 29.3411 30.7479 29.4168 30.9383 29.4168H35.2533C35.4437 29.4168 35.6263 29.3411 35.7609 29.2065C35.8955 29.0719 35.9711 28.8893 35.9711 28.6989V25.8222C35.9713 25.7279 35.9529 25.6344 35.9169 25.5471C35.8809 25.4599 35.828 25.3806 35.7614 25.3138C35.6947 25.247 35.6155 25.194 35.5283 25.1578C35.4411 25.1217 35.3477 25.1031 35.2533 25.1031H30.9383Z" fill="#FF6A51"/>
<path d="M9.33511 17.9111C9.14497 17.9115 8.96274 17.9873 8.82842 18.1219C8.69409 18.2564 8.61865 18.4388 8.61865 18.629C8.61848 18.7232 8.63687 18.8166 8.67277 18.9038C8.70868 18.9909 8.76141 19.0701 8.82794 19.1369C8.89447 19.2037 8.9735 19.2567 9.06052 19.293C9.14754 19.3292 9.24085 19.3479 9.33511 19.3481H17.9516C18.0461 19.3483 18.1397 19.3298 18.2271 19.2937C18.3144 19.2577 18.3937 19.2047 18.4606 19.1379C18.5274 19.0711 18.5803 18.9917 18.6164 18.9044C18.6525 18.817 18.671 18.7234 18.6708 18.629C18.6708 18.5346 18.6522 18.4411 18.616 18.3539C18.5799 18.2668 18.5269 18.1876 18.4601 18.1209C18.3933 18.0542 18.314 18.0014 18.2267 17.9654C18.1395 17.9294 18.046 17.911 17.9516 17.9111H9.33511ZM9.33511 22.2533C9.14497 22.2537 8.96274 22.3295 8.82842 22.464C8.69409 22.5986 8.61865 22.781 8.61865 22.9711C8.61848 23.0654 8.63687 23.1588 8.67277 23.2459C8.70868 23.3331 8.76141 23.4123 8.82794 23.4791C8.89447 23.5459 8.9735 23.5989 9.06052 23.6351C9.14754 23.6714 9.24085 23.6901 9.33511 23.6903H17.9516C18.0461 23.6905 18.1397 23.672 18.2271 23.6359C18.3144 23.5998 18.3937 23.5469 18.4606 23.4801C18.5274 23.4132 18.5803 23.3339 18.6164 23.2466C18.6525 23.1592 18.671 23.0656 18.6708 22.9711C18.6708 22.8768 18.6522 22.7833 18.616 22.6961C18.5799 22.6089 18.5269 22.5298 18.4601 22.4631C18.3933 22.3964 18.314 22.3436 18.2267 22.3076C18.1395 22.2716 18.046 22.2531 17.9516 22.2533H9.33511ZM9.33511 26.5955C9.14521 26.5959 8.96318 26.6715 8.8289 26.8057C8.69461 26.94 8.61901 27.1221 8.61865 27.312C8.61848 27.4062 8.63687 27.4996 8.67277 27.5868C8.70868 27.6739 8.76141 27.7531 8.82794 27.8199C8.89447 27.8867 8.9735 27.9397 9.06052 27.976C9.14754 28.0122 9.24085 28.031 9.33511 28.0311H17.9516C18.0461 28.0313 18.1397 28.0128 18.2271 27.9768C18.3144 27.9407 18.3937 27.8877 18.4606 27.8209C18.5274 27.7541 18.5803 27.6747 18.6164 27.5874C18.6525 27.5001 18.671 27.4065 18.6708 27.312C18.6706 27.2177 18.6519 27.1244 18.6156 27.0374C18.5794 26.9503 18.5264 26.8713 18.4596 26.8048C18.3928 26.7383 18.3136 26.6855 18.2264 26.6496C18.1393 26.6137 18.0459 26.5953 17.9516 26.5955H9.33511Z" fill="#A1A1A1"/>
<path d="M33.1086 25.1035V29.4186H35.2662C35.4565 29.4186 35.6391 29.3429 35.7737 29.2083C35.9084 29.0737 35.984 28.8911 35.984 28.7007V25.824C35.9842 25.7297 35.9657 25.6362 35.9297 25.5489C35.8937 25.4617 35.8409 25.3824 35.7742 25.3156C35.7075 25.2488 35.6284 25.1958 35.5412 25.1596C35.454 25.1235 35.3605 25.1049 35.2662 25.1049L33.1086 25.1035Z" fill="#FA2222"/>
<path d="M13.7051 17.9111V19.3495H18.0201C18.1145 19.3497 18.208 19.3312 18.2952 19.2952C18.3825 19.2592 18.4618 19.2064 18.5286 19.1397C18.5954 19.073 18.6484 18.9939 18.6845 18.9067C18.7207 18.8195 18.7393 18.726 18.7393 18.6317C18.7393 18.5373 18.7207 18.4438 18.6845 18.3567C18.6484 18.2695 18.5954 18.1903 18.5286 18.1236C18.4618 18.0569 18.3825 18.0041 18.2952 17.9681C18.208 17.9321 18.1145 17.9137 18.0201 17.9138L13.7051 17.9111ZM13.7051 22.2533V23.6917H18.0201C18.1145 23.6918 18.208 23.6734 18.2952 23.6374C18.3825 23.6014 18.4618 23.5486 18.5286 23.4819C18.5954 23.4152 18.6484 23.336 18.6845 23.2489C18.7207 23.1617 18.7393 23.0682 18.7393 22.9738C18.7393 22.8795 18.7207 22.786 18.6845 22.6988C18.6484 22.6117 18.5954 22.5325 18.5286 22.4658C18.4618 22.3991 18.3825 22.3463 18.2952 22.3103C18.208 22.2743 18.1145 22.2559 18.0201 22.256L13.7051 22.2533ZM13.7051 26.5955V28.0338H18.0201C18.1145 28.034 18.208 28.0156 18.2952 27.9796C18.3825 27.9436 18.4618 27.8908 18.5286 27.8241C18.5954 27.7574 18.6484 27.6782 18.6845 27.591C18.7207 27.5039 18.7393 27.4104 18.7393 27.316C18.7393 27.2217 18.7207 27.1282 18.6845 27.041C18.6484 26.9538 18.5954 26.8746 18.5286 26.808C18.4618 26.7413 18.3825 26.6885 18.2952 26.6525C18.208 26.6165 18.1145 26.598 18.0201 26.5982L13.7051 26.5955Z" fill="#0E1A26"/>
<path d="M25.9175 15.74V23.6373H28.075C28.1694 23.6373 28.2628 23.6187 28.35 23.5825C28.4372 23.5464 28.5164 23.4934 28.5831 23.4266C28.6497 23.3598 28.7026 23.2805 28.7386 23.1933C28.7746 23.106 28.793 23.0125 28.7928 22.9181V16.4456C28.7921 16.2557 28.7162 16.0738 28.5816 15.9398C28.4471 15.8057 28.2649 15.7305 28.075 15.7305L25.9175 15.74Z" fill="#FA2222"/>
<path d="M40.1653 15.74V23.6373H42.3228C42.4173 23.6375 42.5109 23.619 42.5982 23.5829C42.6856 23.5469 42.7649 23.4939 42.8317 23.4271C42.8986 23.3603 42.9515 23.2809 42.9876 23.1936C43.0237 23.1062 43.0422 23.0126 43.042 22.9181V16.4456C43.0413 16.2554 42.9651 16.0733 42.8303 15.9393C42.6955 15.8052 42.5129 15.7301 42.3228 15.7305L40.1653 15.74Z" fill="#FA2222"/>
</svg>
