<svg width="46" height="54" viewBox="0 0 46 54" fill="none" xmlns="http://www.w3.org/2000/svg">
<path d="M11.125 52.375H34.269C36.8217 52.375 39.2699 51.3609 41.0749 49.5559C42.8799 47.7509 43.894 45.3027 43.894 42.75V27.5425C43.8949 24.9901 42.882 22.5419 41.078 20.7362L24.6633 4.31875C23.7694 3.42501 22.7083 2.71608 21.5405 2.23243C20.3727 1.74879 19.121 1.49991 17.857 1.5H11.125C8.57229 1.5 6.12414 2.51406 4.3191 4.3191C2.51406 6.12413 1.5 8.57229 1.5 11.125V42.75C1.5 45.3027 2.51406 47.7509 4.3191 49.5559C6.12414 51.3609 8.57229 52.375 11.125 52.375Z" stroke="#0E1A26" stroke-width="3" stroke-linecap="round" stroke-linejoin="round"/>
<path fill-rule="evenodd" clip-rule="evenodd" d="M18.3987 13.5756C17.7415 13.7901 17.3207 14.2246 17.1997 14.7059C16.9522 15.6739 17.1997 16.7134 17.8955 18.0141C18.242 18.6576 18.6655 19.3094 19.133 20.0079L19.386 20.3846L19.7847 20.9759L19.837 20.7889L20.0735 19.9474C20.3448 19.0252 20.5556 18.0902 20.706 17.1424C20.9507 15.3769 20.6757 14.3429 19.8562 13.6774C19.6362 13.4986 19.0917 13.3501 18.3987 13.5756ZM18.55 24.9936L17.8075 23.9981L17.7195 23.8661C17.4032 23.3436 17.0512 22.8211 16.669 22.2574L16.394 21.8476C15.888 21.1119 15.4181 20.352 14.986 19.5706C14.1335 17.9811 13.4515 16.0341 14.0015 13.8864C14.469 12.0604 15.921 10.9136 17.3757 10.4379C18.7975 9.97586 20.6042 10.0336 21.9407 11.1171C24.1187 12.8881 24.2727 15.4429 23.973 17.5989C23.806 18.6898 23.5662 19.7684 23.2552 20.8274L22.9912 21.7624C22.7859 22.4627 22.5952 23.1676 22.4192 23.8771L22.235 24.4106L26.063 29.5366C27.8505 29.3221 29.814 29.1929 31.6455 29.3249C33.7602 29.4734 36.0317 29.9904 37.58 31.4589C38.0781 31.9758 38.4386 32.6094 38.6284 33.3017C38.8182 33.9941 38.8312 34.7229 38.6662 35.4216C38.3445 36.7416 37.4177 37.8416 36.139 38.5099C33.4302 39.9261 30.9085 38.7986 29.0357 37.3659C27.57 36.2466 26.162 34.6846 24.9767 33.3701L24.6907 33.0566C23.6732 33.2134 22.7107 33.3894 21.9297 33.5379C21.091 33.6946 20.0487 33.8899 18.9157 34.1429L18.5005 35.3611C18.2713 35.8891 18.0531 36.4208 17.846 36.9561L17.5105 37.7894C17.1719 38.6473 16.7797 39.4831 16.3362 40.2919C15.4287 41.8814 13.9795 43.5699 11.5485 43.7046C8.29248 43.8861 6.08698 40.9959 6.71948 37.9076L6.73598 37.8334C7.28598 35.6581 9.19448 34.2309 11.0397 33.2876C12.6815 32.4461 14.5982 31.8246 16.3775 31.3599L18.55 24.9936ZM20.9425 28.1974L20.1532 30.5156L21.311 30.2956L21.322 30.2929L22.367 30.1004L20.9425 28.1974ZM28.7525 32.6084C29.506 33.4059 30.2567 34.1484 31.0377 34.7451C32.5502 35.9001 33.6227 36.1009 34.61 35.5839C35.16 35.2951 35.391 34.9211 35.4597 34.6434C35.4931 34.4944 35.4905 34.3397 35.4522 34.1919C35.414 34.0442 35.3411 33.9077 35.2397 33.7936C34.533 33.1666 33.2542 32.7486 31.4117 32.6166C30.5263 32.5602 29.6383 32.5575 28.7525 32.6084ZM14.9887 35.2126C14.1142 35.5124 13.2837 35.8451 12.5412 36.2246C10.927 37.0496 10.1487 37.8856 9.94523 38.6089C9.73073 39.7501 10.4732 40.4596 11.3642 40.4101C12.1067 40.3689 12.7557 39.9041 13.4707 38.6529C13.8447 37.9709 14.1729 37.2678 14.4552 36.5436L14.7495 35.8121L14.9887 35.2126Z" fill="#0E1A26"/>
</svg>
