<svg width="44" height="44" viewBox="0 0 44 44" fill="none" xmlns="http://www.w3.org/2000/svg">
<path d="M21.0833 28.5582V12.6998L16.8117 16.9715L15.5137 15.6552L22 9.16699L28.4882 15.6552L27.1902 16.9733L22.9167 12.6998V28.5582H21.0833ZM12.1293 34.8337C11.2848 34.8337 10.5802 34.5513 10.0155 33.9867C9.45084 33.422 9.16789 32.7168 9.16667 31.871V27.4288H11V31.871C11 32.1533 11.1173 32.4124 11.352 32.6483C11.5867 32.8842 11.8452 33.0015 12.1275 33.0003H31.8725C32.1536 33.0003 32.4121 32.883 32.648 32.6483C32.8839 32.4137 33.0012 32.1545 33 31.871V27.4288H34.8333V31.871C34.8333 32.7155 34.551 33.4202 33.9863 33.9848C33.4217 34.5495 32.7164 34.8324 31.8707 34.8337H12.1293Z" fill="#A1A1A1"/>
</svg>
